<?xml version="1.0" encoding="UTF-8" standalone="no"?>
<svg xmlns="http://www.w3.org/2000/svg" viewBox="0 0 128 128">
  <rect width="128" height="128" rx="20" fill="#f9d26d"/>
  <path d="M24 76c12-28 68-44 84-12 4 8 4 18 0 26s-12 14-20 18-16 6-24 6-18-2-28-8-20-16-12-30z" fill="#f39c12"/>
  <path d="M30 70c12-8 40-14 56-4 10 6 10 14 0 22s-28 10-40 6-20-12-16-24z" fill="#e74c3c" opacity="0.9"/>
  <circle cx="54" cy="86" r="6" fill="#2ecc71"/>
  <circle cx="76" cy="82" r="5" fill="#27ae60"/>
  <circle cx="92" cy="92" r="4" fill="#c0392b"/>
</svg>
